<?xml version="1.0" standalone="no"?>
<!DOCTYPE svg PUBLIC "-//W3C//DTD SVG 20010904//EN" "http://www.w3.org/TR/2001/REC-SVG-20010904/DTD/svg10.dtd">
<!-- Created using Krita: https://krita.org -->
<svg xmlns="http://www.w3.org/2000/svg" 
    xmlns:xlink="http://www.w3.org/1999/xlink"
    xmlns:krita="http://krita.org/namespaces/svg/krita"
    xmlns:sodipodi="http://sodipodi.sourceforge.net/DTD/sodipodi-0.dtd"
    width="15.36pt"
    height="15.36pt"
    viewBox="0 0 15.36 15.36">
<defs/>
<ellipse id="shape0" transform="matrix(1.00000004470348 0 0 1.00000004470348 8.37750037292468 2.74500013128713)" rx="2.16" ry="1.08" cx="2.16" cy="1.08" fill="none" stroke="#ffc3c3" stroke-width="0.48" stroke-linecap="square" stroke-linejoin="bevel"/><circle id="shape1" transform="matrix(1.00000004470348 0 0 1.00000004470348 10.2975004587554 3.70189357225181)" r="0.24" cx="0.24" cy="0.24" fill="none" stroke="#ffc3c3" stroke-width="0.48" stroke-linecap="square" stroke-linejoin="bevel"/><ellipse id="shape01" transform="matrix(1.00000003429979 0 0 1.00000003429979 2.61881147927527 6.60000030627899)" rx="2.16" ry="1.08" cx="2.16" cy="1.08" fill="none" stroke="#ffc3c3" stroke-width="0.48" stroke-linecap="square" stroke-linejoin="bevel"/><circle id="shape11" transform="matrix(1.00000003429979 0 0 1.00000003429979 4.53881154513086 7.56000033920679)" r="0.24" cx="0.24" cy="0.24" fill="none" stroke="#ffc3c3" stroke-width="0.48" stroke-linecap="square" stroke-linejoin="bevel"/><ellipse id="shape011" transform="matrix(1.00000003429979 0 0 1.00000003429979 2.64171598642546 10.4344286175419)" rx="2.16" ry="1.08" cx="2.16" cy="1.08" fill="none" stroke="#ffc3c3" stroke-width="0.48" stroke-linecap="square" stroke-linejoin="bevel"/><circle id="shape111" transform="matrix(1.00000003429979 0 0 1.00000003429979 4.56171605228107 11.3944286504697)" r="0.24" cx="0.24" cy="0.24" fill="none" stroke="#ffc3c3" stroke-width="0.48" stroke-linecap="square" stroke-linejoin="bevel"/><ellipse id="shape02" transform="matrix(1.00000003429979 0 0 1.00000003429979 8.4186658404822 6.60000030627899)" rx="2.16" ry="1.08" cx="2.16" cy="1.08" fill="none" stroke="#ffc3c3" stroke-width="0.48" stroke-linecap="square" stroke-linejoin="bevel"/><circle id="shape12" transform="matrix(1.00000003429979 0 0 1.00000003429979 10.3386659063378 7.5600003392068)" r="0.24" cx="0.24" cy="0.24" fill="none" stroke="#ffc3c3" stroke-width="0.48" stroke-linecap="square" stroke-linejoin="bevel"/><ellipse id="shape03" transform="matrix(1.00000003429979 0 0 1.00000003429979 8.42555575121578 10.442333122969)" rx="2.16" ry="1.08" cx="2.16" cy="1.08" fill="none" stroke="#ffc3c3" stroke-width="0.48" stroke-linecap="square" stroke-linejoin="bevel"/><circle id="shape13" transform="matrix(1.00000003429979 0 0 1.00000003429979 10.3455558170714 11.4023331558969)" r="0.24" cx="0.24" cy="0.24" fill="none" stroke="#ffc3c3" stroke-width="0.48" stroke-linecap="square" stroke-linejoin="bevel"/>
</svg>
